<svg xmlns="http://www.w3.org/2000/svg" width="1189.081" height="1558.106" viewBox="0 0 1189.081 1558.106">
  <path id="music" d="M627.042,88.006c112.02,0,148.84,22.018,195.46,49.9C882,173.5,949.447,213.843,1119.075,214.089V416.028c-134.53,0-178.28-27.431-224.613-56.5-49.737-31.162-106.115-66.506-226.417-66.506a134.6,134.6,0,0,0-41,5.986v-211M545.036,1138.087v98c0,155.811-33.991,246.017-207.638,246.017-243.393,0-243.393-94.8-243.393-164.011,0-54.821,0-123.008,246.017-123.008,96.931,0,161.838-23.208,205.014-56.994M627.042,6c-65.6,0-82.006,41-82.006,82.006V949.064c0,90.78-42.356,164.011-205.014,164.011C107.906,1113.075,12,1173.1,12,1318.089c0,97.71,20.05,246.017,325.4,246.017,283.7,0,289.644-218.053,289.644-328.022V457.031c.205-55.559,8.2-82.006,41-82.006,210.672,0,158.722,123.008,451.031,123.008,0,0,82.006,0,82.006-69.664V209.7c0-62.857-28.21-77.618-80.448-77.618C828.98,132.125,900.694,6,627.042,6Z" transform="translate(-12 -6)" fill="#5b6a50"/>
</svg>
