<svg xmlns="http://www.w3.org/2000/svg" width="29" height="38.001" viewBox="0 0 29 38.001"><g transform="translate(-12278.75 1961)"><line x2="0.804" y2="29.778" transform="translate(12282.5 -1954.931) rotate(-45)" fill="none" stroke="#156f56" stroke-linecap="round" stroke-width="2"/><g transform="translate(-0.25 0)"><path d="M13,18.75V5a1.785,1.785,0,0,1,2-2c6.674,0,4.925,3.076,12.037,3.075,1.274,0,1.962.36,1.962,1.893V13.3C29,15,27,15,27,15c-7.129,0-5.862-3-11-3-.8,0-1,.645-1,2V18.75Zm8.522-7.128C22.652,12.331,23.719,13,27,13V8.075c-4.137-.005-5.782-.99-7.233-1.858A7.533,7.533,0,0,0,15,5v5.145A3.3,3.3,0,0,1,16,10,9.017,9.017,0,0,1,21.522,11.622Z" transform="translate(12279 -1964)" fill="#156f56"/><path d="M0,35c0-3.536,2.339-5,8-5,3.967,0,5-1.786,5-4V24.25h2V33c0,2.682-.145,8-7.064,8C.489,41,0,37.383,0,35Zm8-3c-6,0-6,1.662-6,3,0,1.688,0,4,5.936,4C12.171,39,13,36.8,13,33V30.61A7.882,7.882,0,0,1,8,32Z" transform="translate(12279 -1964)" fill="#156f56"/></g><circle cx="1" cy="1" r="1" transform="translate(12291.752 -1940.6)" fill="#156f56"/></g></svg>